<svg width="41" height="40" viewBox="0 0 41 40" fill="none" xmlns="http://www.w3.org/2000/svg">
<path d="M35.9587 13.3868C36.004 13.4967 36.0145 13.6222 35.9779 13.7442C34.747 17.8238 34.747 22.1771 35.9779 26.2567C36.0023 26.3421 36.0058 26.431 35.9866 26.5147L35.8349 26.4833L20.0884 19.9612L35.8122 13.4478L35.9587 13.3868Z" fill="#00B0FF"/>
<path d="M35.9866 26.5147C35.9866 26.5234 35.9831 26.5339 35.9814 26.5426C35.9447 26.6803 35.8541 26.8024 35.7216 26.8738C31.9663 28.8892 28.8892 31.9664 26.8738 35.7217C26.7552 35.9431 26.4972 36.0494 26.2566 35.9779C22.177 34.7471 17.8237 34.7471 13.7441 35.9779C13.5018 36.0494 13.2455 35.9431 13.127 35.7217C11.1116 31.9664 8.03448 28.8892 4.27917 26.8738C4.16759 26.8146 4.08391 26.7187 4.04032 26.6088C4.03335 26.5932 4.02812 26.5775 4.02289 26.56L4.18677 26.5478L20.0884 19.9612L35.8349 26.4833L35.9866 26.5147Z" fill="#0083E8"/>
<path d="M35.9587 13.3868L35.8122 13.4478L20.0884 19.9612L4.21989 13.3868L4.07345 13.3258C4.12052 13.2439 4.19025 13.1741 4.27917 13.127C8.03448 11.1117 11.1116 8.03455 13.127 4.27924C13.2455 4.05608 13.5018 3.94973 13.7441 4.02296C17.8237 5.2538 22.177 5.2538 26.2566 4.02296C26.4972 3.94973 26.7552 4.05608 26.8738 4.27924C28.8892 8.03455 31.9663 11.1117 35.7216 13.127C35.8314 13.1863 35.9134 13.2787 35.9587 13.3868Z" fill="#96DFFF"/>
<path d="M4.21989 13.3868L20.0884 19.9612L4.18677 26.5478L4.02289 26.56C3.99325 26.4641 3.99151 26.3595 4.02289 26.2567C5.25374 22.1771 5.25374 17.8238 4.02289 13.7442C3.9793 13.5995 4.00197 13.4496 4.07345 13.3258L4.21989 13.3868Z" fill="#00B0FF"/>
<circle cx="28" cy="12" r="9" fill="#00B0FF"/>
<path d="M31.72 8.79L27.43 13.09L25.78 11.44C25.6904 11.3353 25.58 11.2503 25.456 11.1903C25.3319 11.1303 25.1968 11.0965 25.0591 11.0912C24.9213 11.0859 24.784 11.1091 24.6557 11.1594C24.5274 11.2096 24.4108 11.2859 24.3134 11.3833C24.2159 11.4808 24.1396 11.5974 24.0894 11.7257C24.0391 11.854 24.0159 11.9913 24.0212 12.1291C24.0265 12.2668 24.0603 12.4019 24.1203 12.526C24.1803 12.65 24.2653 12.7604 24.37 12.85L26.72 15.21C26.8134 15.3027 26.9243 15.376 27.0461 15.4258C27.1679 15.4755 27.2984 15.5008 27.43 15.5C27.6923 15.4989 27.9437 15.3947 28.13 15.21L33.13 10.21C33.2237 10.117 33.2981 10.0064 33.3489 9.88458C33.3997 9.76272 33.4258 9.63201 33.4258 9.5C33.4258 9.36799 33.3997 9.23728 33.3489 9.11542C33.2981 8.99356 33.2237 8.88296 33.13 8.79C32.9426 8.60375 32.6892 8.49921 32.425 8.49921C32.1608 8.49921 31.9074 8.60375 31.72 8.79ZM29 2C27.0222 2 25.0888 2.58649 23.4443 3.6853C21.7998 4.78412 20.5181 6.3459 19.7612 8.17317C19.0043 10.0004 18.8063 12.0111 19.1922 13.9509C19.578 15.8907 20.5304 17.6725 21.9289 19.0711C23.3275 20.4696 25.1093 21.422 27.0491 21.8079C28.9889 22.1937 30.9996 21.9957 32.8268 21.2388C34.6541 20.4819 36.2159 19.2002 37.3147 17.5557C38.4135 15.9112 39 13.9778 39 12C39 10.6868 38.7413 9.38642 38.2388 8.17317C37.7363 6.95991 36.9997 5.85752 36.0711 4.92893C35.1425 4.00035 34.0401 3.26375 32.8268 2.7612C31.6136 2.25866 30.3132 2 29 2ZM29 20C27.4178 20 25.871 19.5308 24.5554 18.6518C23.2398 17.7727 22.2145 16.5233 21.609 15.0615C21.0035 13.5997 20.845 11.9911 21.1537 10.4393C21.4624 8.88743 22.2243 7.46197 23.3432 6.34315C24.462 5.22433 25.8874 4.4624 27.4393 4.15372C28.9911 3.84504 30.5997 4.00346 32.0615 4.60896C33.5233 5.21447 34.7727 6.23984 35.6518 7.55544C36.5308 8.87103 37 10.4177 37 12C37 14.1217 36.1572 16.1566 34.6569 17.6569C33.1566 19.1571 31.1217 20 29 20Z" fill="white"/>
</svg>
