<svg width="32" height="32" viewBox="0 0 32 32" fill="none" xmlns="http://www.w3.org/2000/svg">
<path d="M31.9587 9.38631C32.004 9.49614 32.0145 9.62165 31.9779 9.74369C30.747 13.823 30.747 18.1761 31.9779 22.2555C32.0023 22.3409 32.0058 22.4298 31.9866 22.5135L31.8349 22.4821L16.0884 15.9604L31.8122 9.44732L31.9587 9.38631Z" fill="#1ADE1A"/>
<path d="M31.9866 22.5135C31.9866 22.5222 31.9831 22.5327 31.9814 22.5414C31.9447 22.6791 31.8541 22.8011 31.7216 22.8726C27.9663 24.8879 24.8892 27.9648 22.8738 31.7199C22.7552 31.9413 22.4972 32.0477 22.2566 31.9762C18.177 30.7454 13.8237 30.7454 9.74415 31.9762C9.50181 32.0477 9.24553 31.9413 9.12698 31.7199C7.1116 27.9648 4.03448 24.8879 0.279168 22.8726C0.16759 22.8133 0.0839063 22.7174 0.040321 22.6076C0.0333474 22.5919 0.0281172 22.5762 0.0228869 22.5588L0.186768 22.5466L16.0884 15.9604L31.8349 22.4821L31.9866 22.5135Z" fill="#1CCD1C"/>
<path d="M31.9587 9.38631L31.8122 9.44732L16.0884 15.9604L0.219892 9.38631L0.0734459 9.32529C0.120518 9.24335 0.190254 9.17362 0.279168 9.12655C4.03448 7.11128 7.1116 4.03433 9.12698 0.279222C9.24553 0.0560778 9.50181 -0.0502644 9.74415 0.0229548C13.8237 1.25374 18.177 1.25374 22.2566 0.0229548C22.4972 -0.0502644 22.7552 0.0560778 22.8738 0.279222C24.8892 4.03433 27.9663 7.11128 31.7216 9.12655C31.8314 9.18583 31.9134 9.27822 31.9587 9.38631Z" fill="#29EC29"/>
<path d="M0.219892 9.38631L16.0884 15.9604L0.186768 22.5466L0.0228869 22.5588C-0.00675106 22.4629 -0.00849446 22.3583 0.0228869 22.2555C1.25374 18.1761 1.25374 13.823 0.0228869 9.74369C-0.0206983 9.59899 0.00196603 9.44907 0.0734459 9.32529L0.219892 9.38631Z" fill="#1ADE1A"/>
</svg>
