<svg width="32" height="32" viewBox="0 0 32 32" fill="none" xmlns="http://www.w3.org/2000/svg">
<path d="M31.9165 9.40479C31.9617 9.51433 31.9721 9.63952 31.9356 9.76123C30.708 13.8299 30.708 18.1716 31.9356 22.2403C31.9599 22.3255 31.9634 22.4141 31.9443 22.4976L31.793 22.4663L16.0886 15.9616L31.7704 9.46564L31.9165 9.40479Z" fill="#D0D0D0"/>
<path d="M31.8783 22.536C31.8783 22.5447 31.8748 22.5551 31.8731 22.5638C31.8366 22.7012 31.7461 22.8229 31.614 22.8942C27.8687 24.9042 24.7998 27.973 22.7898 31.7183C22.6716 31.9391 22.4143 32.0452 22.1743 31.9739C18.1056 30.7464 13.764 30.7464 9.69528 31.9739C9.4536 32.0452 9.198 31.9391 9.07976 31.7183C7.06977 27.973 4.00087 24.9042 0.255597 22.8942C0.144316 22.835 0.0608563 22.7394 0.0173875 22.6299C0.0104325 22.6142 0.00521626 22.5986 0 22.5812L0.163443 22.569L16.0226 16L31.727 22.5047L31.8783 22.536Z" fill="#C1C1C1"/>
<path d="M31.8 9.36173L31.654 9.42259L15.9722 15.9186L0.146055 9.36173L0 9.30088C0.0469463 9.21916 0.116496 9.14961 0.205173 9.10266C3.95045 7.09266 7.01934 4.02376 9.02934 0.278491C9.14758 0.055931 9.40317 -0.0501329 9.64486 0.0228947C13.7135 1.25045 18.0552 1.25045 22.1239 0.0228947C22.3638 -0.0501329 22.6212 0.055931 22.7394 0.278491C24.7494 4.02376 27.8183 7.09266 31.5636 9.10266C31.6731 9.16178 31.7548 9.25393 31.8 9.36173Z" fill="#EAEAEA"/>
<path d="M0.262518 9.40509L16.0886 15.9619L0.229481 22.5309L0.0660387 22.5431C0.0364799 22.4475 0.0347411 22.3431 0.0660387 22.2406C1.2936 18.1719 1.2936 13.8302 0.0660387 9.76154C0.0225699 9.61722 0.0451736 9.46769 0.116462 9.34424L0.262518 9.40509Z" fill="#D0D0D0"/>
</svg>
